<?xml version="1.0" encoding="UTF-8"?>
<svg width="512" height="512" fill="white" version="1.1" viewBox="0 0 24 24" xmlns="http://www.w3.org/2000/svg">
 <path d="m24 4.5c0 0.553-0.447 1-1 1s-1-0.447-1-1c0-1.212-0.977-2.5-2.785-2.5-0.553 0-1-0.447-1-1s0.447-1 1-1c2.684 0 4.785 1.977 4.785 4.5zm-22 0c0-1.212 0.977-2.5 2.785-2.5 0.553 0 1-0.447 1-1s-0.447-1-1-1c-2.683 0-4.785 1.977-4.785 4.5 0 0.553 0.447 1 1 1s1-0.447 1-1zm21 8.5c0 2.738-1.006 5.246-2.667 7.173 0.846 0.449 1.667 1.317 1.667 2.827 0 0.553-0.447 1-1 1s-1-0.447-1-1c0-1-0.858-1.194-1.122-1.23-0.065-9e-3 -0.128-0.024-0.188-0.044-1.855 1.426-4.175 2.275-6.69 2.275s-4.833-0.848-6.687-2.273c-0.065 0.021-0.132 0.036-0.202 0.044-0.252 0.034-1.11 0.229-1.11 1.229 0 0.553-0.447 1-1 1s-1-0.447-1-1c0-1.51 0.821-2.378 1.667-2.827-1.661-1.927-2.667-4.435-2.667-7.173-1e-3 -5.729 4.4-10.448 9.999-10.955v-1.046c0-0.553 0.447-1 1-1s1 0.447 1 1v1.046c5.599 0.507 10 5.226 10 10.954z"/>
</svg>
