<svg xmlns="http://www.w3.org/2000/svg" version="1.1" xmlns:xlink="http://www.w3.org/1999/xlink" xmlns:svgjs="http://svgjs.com/svgjs" width="512" height="512" x="0" y="0" viewBox="0 0 24 24" style="enable-background:new 0 0 512 512" xml:space="preserve" class=""><g><path xmlns="http://www.w3.org/2000/svg" d="m17.9 5h-12l1.3-1.3c.4-.4.4-1 0-1.4s-1-.4-1.4 0l-3 3c-.4.4-.4 1 0 1.4l3 3c.4.4 1 .4 1.4 0 .4-.4.4-1 0-1.4l-1.3-1.3h12c.9 0 1.6.7 1.6 1.5v2.5c0 .6.4 1 1 1s1-.4 1-1v-2.5c0-1.9-1.6-3.5-3.6-3.5z" fill="#000000" data-original="#000000"></path><path xmlns="http://www.w3.org/2000/svg" d="m18.2 14.3c-.4-.4-1-.4-1.4 0s-.4 1 0 1.4l1.3 1.3h-12c-.9 0-1.6-.7-1.6-1.5v-2.5c0-.6-.4-1-1-1s-1 .4-1 1v2.5c0 2 1.6 3.5 3.6 3.5h12l-1.3 1.3c-.4.4-.4 1 0 1.4.4.4 1 .4 1.4 0l3-3c.4-.4.4-1 0-1.4z" fill="#000000" data-original="#000000"></path></g></svg>